<mxfile host="app.diagrams.net" modified="2024-01-16T11:33:44.280Z" agent="Mozilla/5.0 (Windows NT 10.0; Win64; x64) AppleWebKit/537.36 (KHTML, like Gecko) Chrome/120.0.0.0 Safari/537.36" etag="SoZhM6cyYLEgK4RcLxh8" version="22.1.18" type="device">
  <diagram name="Page-1" id="e7e014a7-5840-1c2e-5031-d8a46d1fe8dd">
    <mxGraphModel dx="1119" dy="988" grid="1" gridSize="10" guides="1" tooltips="1" connect="1" arrows="1" fold="1" page="1" pageScale="1" pageWidth="1169" pageHeight="826" background="none" math="0" shadow="0">
      <root>
        <mxCell id="0" />
        <mxCell id="1" parent="0" />
        <mxCell id="2" value="User" style="swimlane;whiteSpace=wrap;fontFamily=Times New Roman;fontSize=15;" parent="1" vertex="1">
          <mxGeometry x="240" y="30" width="280" height="670" as="geometry" />
        </mxCell>
        <mxCell id="5" value="" style="ellipse;shape=startState;fillColor=#000000;strokeColor=#ff0000;" parent="2" vertex="1">
          <mxGeometry x="125" y="40" width="30" height="30" as="geometry" />
        </mxCell>
        <mxCell id="6" value="" style="edgeStyle=elbowEdgeStyle;elbow=horizontal;verticalAlign=bottom;endArrow=open;endSize=8;strokeColor=#FF0000;endFill=1;rounded=0;entryX=0.5;entryY=0;entryDx=0;entryDy=0;" parent="2" source="5" target="7" edge="1">
          <mxGeometry x="100" y="40" as="geometry">
            <mxPoint x="115" y="110" as="targetPoint" />
          </mxGeometry>
        </mxCell>
        <mxCell id="7" value="Provide Input Prompt" style="fontFamily=Times New Roman;fontSize=14;" parent="2" vertex="1">
          <mxGeometry x="70" y="110" width="140" height="60" as="geometry" />
        </mxCell>
        <mxCell id="3" value="System" style="swimlane;whiteSpace=wrap;fontSize=14;fontFamily=Times New Roman;" parent="1" vertex="1">
          <mxGeometry x="520" y="30" width="280" height="670" as="geometry" />
        </mxCell>
        <mxCell id="w-CAmt0F9FTit7DLOCMC-48" style="edgeStyle=orthogonalEdgeStyle;rounded=0;orthogonalLoop=1;jettySize=auto;html=1;exitX=0.5;exitY=1;exitDx=0;exitDy=0;entryX=0.5;entryY=0;entryDx=0;entryDy=0;" edge="1" parent="3" source="16" target="21">
          <mxGeometry relative="1" as="geometry" />
        </mxCell>
        <mxCell id="w-CAmt0F9FTit7DLOCMC-59" style="edgeStyle=orthogonalEdgeStyle;rounded=0;orthogonalLoop=1;jettySize=auto;html=1;exitX=1;exitY=0.5;exitDx=0;exitDy=0;entryX=1;entryY=0.5;entryDx=0;entryDy=0;" edge="1" parent="3" source="21" target="w-CAmt0F9FTit7DLOCMC-42">
          <mxGeometry relative="1" as="geometry">
            <Array as="points">
              <mxPoint x="250" y="230" />
              <mxPoint x="250" y="440" />
            </Array>
          </mxGeometry>
        </mxCell>
        <mxCell id="w-CAmt0F9FTit7DLOCMC-61" value="&lt;font style=&quot;font-size: 13px;&quot; face=&quot;Times New Roman&quot;&gt;YES&lt;/font&gt;" style="edgeLabel;html=1;align=center;verticalAlign=middle;resizable=0;points=[];" vertex="1" connectable="0" parent="w-CAmt0F9FTit7DLOCMC-59">
          <mxGeometry x="-0.235" relative="1" as="geometry">
            <mxPoint y="7" as="offset" />
          </mxGeometry>
        </mxCell>
        <mxCell id="16" value="Validate Input Prompt" style="fontFamily=Times New Roman;fontSize=14;" parent="3" vertex="1">
          <mxGeometry x="69.5" y="110" width="140" height="60" as="geometry" />
        </mxCell>
        <mxCell id="w-CAmt0F9FTit7DLOCMC-47" style="edgeStyle=orthogonalEdgeStyle;rounded=0;orthogonalLoop=1;jettySize=auto;html=1;exitX=0.5;exitY=1;exitDx=0;exitDy=0;" edge="1" parent="3" source="21" target="w-CAmt0F9FTit7DLOCMC-41">
          <mxGeometry relative="1" as="geometry" />
        </mxCell>
        <mxCell id="w-CAmt0F9FTit7DLOCMC-60" value="&lt;font style=&quot;font-size: 14px;&quot; face=&quot;Times New Roman&quot;&gt;NO&lt;/font&gt;" style="edgeLabel;html=1;align=center;verticalAlign=middle;resizable=0;points=[];" vertex="1" connectable="0" parent="w-CAmt0F9FTit7DLOCMC-47">
          <mxGeometry x="-0.0933" y="1" relative="1" as="geometry">
            <mxPoint x="-1" y="-3" as="offset" />
          </mxGeometry>
        </mxCell>
        <mxCell id="21" value="Is Input Valid?" style="rhombus;fillColor=#ffffc0;strokeColor=#ff0000;fontFamily=Times New Roman;" parent="3" vertex="1">
          <mxGeometry x="94.5" y="190" width="90" height="80" as="geometry" />
        </mxCell>
        <mxCell id="w-CAmt0F9FTit7DLOCMC-41" value="Display Input Invalid" style="fontFamily=Times New Roman;fontSize=14;" vertex="1" parent="3">
          <mxGeometry x="70" y="320" width="140" height="60" as="geometry" />
        </mxCell>
        <mxCell id="w-CAmt0F9FTit7DLOCMC-42" value="Generate Image &#xa;using Model" style="fontFamily=Times New Roman;fontSize=14;" vertex="1" parent="3">
          <mxGeometry x="70" y="410" width="140" height="60" as="geometry" />
        </mxCell>
        <mxCell id="w-CAmt0F9FTit7DLOCMC-56" style="edgeStyle=orthogonalEdgeStyle;rounded=0;orthogonalLoop=1;jettySize=auto;html=1;exitX=0.5;exitY=1;exitDx=0;exitDy=0;entryX=0.5;entryY=0;entryDx=0;entryDy=0;" edge="1" parent="3" source="w-CAmt0F9FTit7DLOCMC-42" target="w-CAmt0F9FTit7DLOCMC-44">
          <mxGeometry relative="1" as="geometry">
            <mxPoint x="139.5" y="560" as="sourcePoint" />
          </mxGeometry>
        </mxCell>
        <mxCell id="10" value="Visualize Image" style="fontFamily=Times New Roman;fontSize=14;" parent="3" vertex="1">
          <mxGeometry x="-210.5" y="500" width="140" height="60" as="geometry" />
        </mxCell>
        <mxCell id="w-CAmt0F9FTit7DLOCMC-51" value="" style="ellipse;html=1;shape=endState;fillColor=#000000;strokeColor=#ff0000;" vertex="1" parent="3">
          <mxGeometry x="-155.5" y="620" width="30" height="30" as="geometry" />
        </mxCell>
        <mxCell id="w-CAmt0F9FTit7DLOCMC-52" style="edgeStyle=orthogonalEdgeStyle;rounded=0;orthogonalLoop=1;jettySize=auto;html=1;exitX=0.5;exitY=1;exitDx=0;exitDy=0;entryX=0.5;entryY=0;entryDx=0;entryDy=0;" edge="1" parent="3" source="10" target="w-CAmt0F9FTit7DLOCMC-51">
          <mxGeometry relative="1" as="geometry" />
        </mxCell>
        <mxCell id="w-CAmt0F9FTit7DLOCMC-44" value="Return generated Image" style="fontFamily=Times New Roman;fontSize=14;" vertex="1" parent="3">
          <mxGeometry x="69.5" y="500" width="140" height="60" as="geometry" />
        </mxCell>
        <mxCell id="w-CAmt0F9FTit7DLOCMC-57" style="edgeStyle=orthogonalEdgeStyle;rounded=0;orthogonalLoop=1;jettySize=auto;html=1;exitX=0;exitY=0.5;exitDx=0;exitDy=0;entryX=1;entryY=0.5;entryDx=0;entryDy=0;" edge="1" parent="3" source="w-CAmt0F9FTit7DLOCMC-44" target="10">
          <mxGeometry relative="1" as="geometry" />
        </mxCell>
        <mxCell id="w-CAmt0F9FTit7DLOCMC-46" style="edgeStyle=orthogonalEdgeStyle;rounded=0;orthogonalLoop=1;jettySize=auto;html=1;exitX=1;exitY=0.5;exitDx=0;exitDy=0;entryX=0;entryY=0.5;entryDx=0;entryDy=0;" edge="1" parent="1" source="7" target="16">
          <mxGeometry relative="1" as="geometry" />
        </mxCell>
        <mxCell id="w-CAmt0F9FTit7DLOCMC-53" style="edgeStyle=orthogonalEdgeStyle;rounded=0;orthogonalLoop=1;jettySize=auto;html=1;exitX=0;exitY=0.5;exitDx=0;exitDy=0;entryX=0.5;entryY=1;entryDx=0;entryDy=0;" edge="1" parent="1" source="w-CAmt0F9FTit7DLOCMC-41" target="7">
          <mxGeometry relative="1" as="geometry" />
        </mxCell>
      </root>
    </mxGraphModel>
  </diagram>
</mxfile>
